<mxfile host="app.diagrams.net" agent="Mozilla/5.0 (Windows NT 10.0; Win64; x64) AppleWebKit/537.36 (KHTML, like Gecko) Chrome/127.0.0.0 Safari/537.36" version="24.7.6">
  <diagram name="Page-1" id="b5b7bab2-c9e2-2cf4-8b2a-24fd1a2a6d21">
    <mxGraphModel dx="1179" dy="493" grid="1" gridSize="10" guides="1" tooltips="1" connect="1" arrows="1" fold="1" page="1" pageScale="1" pageWidth="827" pageHeight="1169" background="none" math="0" shadow="0">
      <root>
        <mxCell id="0" />
        <mxCell id="1" parent="0" />
        <mxCell id="0TPlcoVxN2XJxhC8K0vr-1" value="Usuarios&lt;div&gt;&lt;br&gt;&lt;/div&gt;" style="shape=module;align=left;spacingLeft=20;align=center;verticalAlign=top;whiteSpace=wrap;html=1;" vertex="1" parent="1">
          <mxGeometry x="380" y="210" width="100" height="50" as="geometry" />
        </mxCell>
        <mxCell id="0TPlcoVxN2XJxhC8K0vr-3" value="Materias" style="shape=module;align=left;spacingLeft=20;align=center;verticalAlign=top;whiteSpace=wrap;html=1;" vertex="1" parent="1">
          <mxGeometry x="120" y="210" width="100" height="50" as="geometry" />
        </mxCell>
        <mxCell id="0TPlcoVxN2XJxhC8K0vr-4" value="Clases" style="shape=module;align=left;spacingLeft=20;align=center;verticalAlign=top;whiteSpace=wrap;html=1;" vertex="1" parent="1">
          <mxGeometry x="240" y="330" width="100" height="50" as="geometry" />
        </mxCell>
        <mxCell id="0TPlcoVxN2XJxhC8K0vr-5" value="" style="endArrow=block;dashed=1;endFill=0;endSize=12;html=1;rounded=0;exitX=0.084;exitY=0.614;exitDx=0;exitDy=0;exitPerimeter=0;entryX=0.595;entryY=1.033;entryDx=0;entryDy=0;entryPerimeter=0;" edge="1" parent="1" source="0TPlcoVxN2XJxhC8K0vr-4" target="0TPlcoVxN2XJxhC8K0vr-3">
          <mxGeometry width="160" relative="1" as="geometry">
            <mxPoint x="240" y="330" as="sourcePoint" />
            <mxPoint x="190" y="280" as="targetPoint" />
            <Array as="points">
              <mxPoint x="180" y="360" />
            </Array>
          </mxGeometry>
        </mxCell>
        <mxCell id="0TPlcoVxN2XJxhC8K0vr-8" value="Carreras" style="shape=module;align=left;spacingLeft=20;align=center;verticalAlign=top;whiteSpace=wrap;html=1;" vertex="1" parent="1">
          <mxGeometry x="120" y="50" width="100" height="50" as="geometry" />
        </mxCell>
        <mxCell id="0TPlcoVxN2XJxhC8K0vr-9" value="" style="endArrow=block;dashed=1;endFill=0;endSize=12;html=1;rounded=0;entryX=0.5;entryY=1;entryDx=0;entryDy=0;exitX=0.5;exitY=0;exitDx=0;exitDy=0;" edge="1" parent="1" source="0TPlcoVxN2XJxhC8K0vr-3" target="0TPlcoVxN2XJxhC8K0vr-8">
          <mxGeometry width="160" relative="1" as="geometry">
            <mxPoint x="270" y="170" as="sourcePoint" />
            <mxPoint x="250" y="150" as="targetPoint" />
            <Array as="points">
              <mxPoint x="170" y="160" />
            </Array>
          </mxGeometry>
        </mxCell>
        <mxCell id="0TPlcoVxN2XJxhC8K0vr-12" value="" style="shape=providedRequiredInterface;html=1;verticalLabelPosition=bottom;sketch=0;direction=north;" vertex="1" parent="1">
          <mxGeometry x="420" y="345" width="20" height="20" as="geometry" />
        </mxCell>
        <mxCell id="0TPlcoVxN2XJxhC8K0vr-13" value="" style="endArrow=none;html=1;rounded=0;exitX=1;exitY=0.5;exitDx=0;exitDy=0;" edge="1" parent="1" source="0TPlcoVxN2XJxhC8K0vr-4">
          <mxGeometry width="50" height="50" relative="1" as="geometry">
            <mxPoint x="340" y="370" as="sourcePoint" />
            <mxPoint x="420" y="355" as="targetPoint" />
          </mxGeometry>
        </mxCell>
        <mxCell id="0TPlcoVxN2XJxhC8K0vr-15" value="" style="endArrow=none;html=1;rounded=0;exitX=0.5;exitY=1;exitDx=0;exitDy=0;entryX=1;entryY=0.5;entryDx=0;entryDy=0;entryPerimeter=0;" edge="1" parent="1" source="0TPlcoVxN2XJxhC8K0vr-1" target="0TPlcoVxN2XJxhC8K0vr-12">
          <mxGeometry width="50" height="50" relative="1" as="geometry">
            <mxPoint x="350" y="365" as="sourcePoint" />
            <mxPoint x="430" y="365" as="targetPoint" />
            <Array as="points" />
          </mxGeometry>
        </mxCell>
        <mxCell id="0TPlcoVxN2XJxhC8K0vr-16" value="Persona" style="shape=module;align=left;spacingLeft=20;align=center;verticalAlign=top;whiteSpace=wrap;html=1;" vertex="1" parent="1">
          <mxGeometry x="380" y="60" width="100" height="50" as="geometry" />
        </mxCell>
        <mxCell id="0TPlcoVxN2XJxhC8K0vr-17" value="Roles" style="shape=module;align=left;spacingLeft=20;align=center;verticalAlign=top;whiteSpace=wrap;html=1;" vertex="1" parent="1">
          <mxGeometry x="660" y="210" width="100" height="50" as="geometry" />
        </mxCell>
        <mxCell id="0TPlcoVxN2XJxhC8K0vr-18" value="Modulos" style="shape=module;align=left;spacingLeft=20;align=center;verticalAlign=top;whiteSpace=wrap;html=1;" vertex="1" parent="1">
          <mxGeometry x="880" y="210" width="100" height="50" as="geometry" />
        </mxCell>
        <mxCell id="0TPlcoVxN2XJxhC8K0vr-19" value="ROLXMOD" style="shape=module;align=left;spacingLeft=20;align=center;verticalAlign=top;whiteSpace=wrap;html=1;" vertex="1" parent="1">
          <mxGeometry x="770" y="345" width="100" height="50" as="geometry" />
        </mxCell>
        <mxCell id="0TPlcoVxN2XJxhC8K0vr-21" value="" style="endArrow=block;dashed=1;endFill=0;endSize=12;html=1;rounded=0;exitX=1;exitY=0.5;exitDx=0;exitDy=0;entryX=0.621;entryY=1.077;entryDx=0;entryDy=0;entryPerimeter=0;" edge="1" parent="1" source="0TPlcoVxN2XJxhC8K0vr-19" target="0TPlcoVxN2XJxhC8K0vr-18">
          <mxGeometry width="160" relative="1" as="geometry">
            <mxPoint x="268" y="381" as="sourcePoint" />
            <mxPoint x="200" y="282" as="targetPoint" />
            <Array as="points">
              <mxPoint x="942" y="370" />
            </Array>
          </mxGeometry>
        </mxCell>
        <mxCell id="0TPlcoVxN2XJxhC8K0vr-22" value="USUXROL" style="shape=module;align=left;spacingLeft=20;align=center;verticalAlign=top;whiteSpace=wrap;html=1;" vertex="1" parent="1">
          <mxGeometry x="520" y="345" width="100" height="50" as="geometry" />
        </mxCell>
        <mxCell id="0TPlcoVxN2XJxhC8K0vr-23" value="" style="endArrow=block;dashed=1;endFill=0;endSize=12;html=1;rounded=0;entryX=0.25;entryY=1;entryDx=0;entryDy=0;exitX=1;exitY=0.5;exitDx=0;exitDy=0;" edge="1" parent="1" source="0TPlcoVxN2XJxhC8K0vr-22" target="0TPlcoVxN2XJxhC8K0vr-17">
          <mxGeometry width="160" relative="1" as="geometry">
            <mxPoint x="779" y="382" as="sourcePoint" />
            <mxPoint x="720" y="270" as="targetPoint" />
            <Array as="points">
              <mxPoint x="620" y="370" />
              <mxPoint x="685" y="370" />
            </Array>
          </mxGeometry>
        </mxCell>
        <mxCell id="0TPlcoVxN2XJxhC8K0vr-25" value="" style="endArrow=block;dashed=1;endFill=0;endSize=12;html=1;rounded=0;entryX=0.831;entryY=1.056;entryDx=0;entryDy=0;entryPerimeter=0;exitX=0.01;exitY=0.566;exitDx=0;exitDy=0;exitPerimeter=0;" edge="1" parent="1" source="0TPlcoVxN2XJxhC8K0vr-22" target="0TPlcoVxN2XJxhC8K0vr-1">
          <mxGeometry width="160" relative="1" as="geometry">
            <mxPoint x="470" y="370" as="sourcePoint" />
            <mxPoint x="560" y="440" as="targetPoint" />
            <Array as="points">
              <mxPoint x="463" y="373" />
            </Array>
          </mxGeometry>
        </mxCell>
        <mxCell id="0TPlcoVxN2XJxhC8K0vr-26" value="" style="endArrow=block;dashed=1;endFill=0;endSize=12;html=1;rounded=0;entryX=0.684;entryY=1.014;entryDx=0;entryDy=0;entryPerimeter=0;exitX=0;exitY=0.5;exitDx=0;exitDy=0;exitPerimeter=0;" edge="1" parent="1" source="0TPlcoVxN2XJxhC8K0vr-19" target="0TPlcoVxN2XJxhC8K0vr-17">
          <mxGeometry width="160" relative="1" as="geometry">
            <mxPoint x="620" y="430" as="sourcePoint" />
            <mxPoint x="780" y="430" as="targetPoint" />
            <Array as="points">
              <mxPoint x="730" y="370" />
            </Array>
          </mxGeometry>
        </mxCell>
      </root>
    </mxGraphModel>
  </diagram>
</mxfile>
